<svg width="116" height="102" viewBox="0 0 116 102" fill="none" xmlns="http://www.w3.org/2000/svg">
<path fill-rule="evenodd" clip-rule="evenodd" d="M103 57C103 81.3005 82.4051 101 57 101C31.5949 101 11 81.3005 11 57C11 32.6995 31.5949 13 57 13C82.4051 13 103 32.6995 103 57ZM53 36.9565C53 43.5599 47.4036 48.913 40.5 48.913C33.5964 48.913 28 43.5599 28 36.9565C28 30.3531 33.5964 25 40.5 25C47.4036 25 53 30.3531 53 36.9565ZM26.2273 59C29.1142 59 31.4545 56.7614 31.4545 54C31.4545 51.2386 29.1142 49 26.2273 49C23.3403 49 21 51.2386 21 54C21 56.7614 23.3403 59 26.2273 59Z" fill="#63CCFA"/>
<path d="M112.279 25.2285L97.6475 30.1267C97.2166 30.2709 96.8744 30.6026 96.7168 31.0288L90.9094 46.731C90.7483 47.1665 90.1325 47.1664 89.9715 46.731L84.1641 31.0288C84.0065 30.6026 83.6642 30.2709 83.2334 30.1267L68.6022 25.2285C68.1589 25.0801 68.1436 24.4586 68.5791 24.2886L83.3024 18.5402C83.6928 18.3878 84.0017 18.079 84.1541 17.6885L89.9747 2.78039C90.1403 2.35618 90.7406 2.35618 90.9062 2.78039L96.7267 17.6885C96.8792 18.079 97.188 18.3878 97.5785 18.5402L112.302 24.2886C112.737 24.4586 112.722 25.0801 112.279 25.2285Z" fill="#161E29" stroke="#63CCFA"/>
<path d="M18.4174 90.9984L13.8676 92.5216C13.4367 92.6658 13.0945 92.9976 12.9369 93.4237L11.0655 98.4836C10.9045 98.919 10.2886 98.919 10.1276 98.4836L8.25622 93.4237C8.09862 92.9976 7.75638 92.6658 7.32554 92.5216L2.77574 90.9984C2.33241 90.85 2.31712 90.2286 2.75262 90.0585L7.39455 88.2462C7.785 88.0938 8.09385 87.7849 8.24629 87.3945L10.1308 82.5677C10.2964 82.1435 10.8967 82.1435 11.0623 82.5677L12.9468 87.3945C13.0993 87.7849 13.4081 88.0938 13.7986 88.2462L18.4405 90.0585C18.876 90.2286 18.8607 90.85 18.4174 90.9984Z" fill="#161E29" stroke="#63CCFA"/>
</svg>
