<?xml version="1.0" encoding="UTF-8" standalone="no"?>
<!DOCTYPE svg PUBLIC "-//W3C//DTD SVG 1.1//EN" "http://www.w3.org/Graphics/SVG/1.1/DTD/svg11.dtd">
<svg width="100%" height="100%" viewBox="0 0 3723 1017" version="1.1" xmlns="http://www.w3.org/2000/svg" xmlns:xlink="http://www.w3.org/1999/xlink" xml:space="preserve" xmlns:serif="http://www.serif.com/" style="fill-rule:evenodd;clip-rule:evenodd;stroke-linejoin:round;stroke-miterlimit:2;">
    <g transform="matrix(4.16667,0,0,4.16667,0,0)">
        <g transform="matrix(0.993426,0,0,1.02916,-0.38111,-371.954)">
            <rect id="Artboard1" x="0.384" y="361.416" width="899.233" height="237.119" style="fill:none;"/>
            <clipPath id="_clip1">
                <rect id="Artboard11" serif:id="Artboard1" x="0.384" y="361.416" width="899.233" height="237.119"/>
            </clipPath>
            <g clip-path="url(#_clip1)">
                <g transform="matrix(1.00662,0,0,0.971668,-4.75707,20.7206)">
                    <rect x="0" y="0" width="900" height="600" style="fill:rgb(32,45,63);"/>
                </g>
                <g transform="matrix(1.00662,0,0,0.971668,-4.75707,20.7206)">
                    <path d="M0,380L21.5,384.8C43,389.7 86,399.3 128.8,401.7C171.7,404 214.3,399 257.2,401C300,403 343,412 385.8,414.3C428.7,416.7 471.3,412.3 514.2,406.3C557,400.3 600,392.7 642.8,385.5C685.7,378.3 728.3,371.7 771.2,379C814,386.3 857,407.7 878.5,418.3L900,429L900,601L0,601L0,380Z" style="fill:rgb(56,100,162);fill-rule:nonzero;"/>
                </g>
                <g transform="matrix(1.00662,0,0,0.971668,-4.75707,20.7206)">
                    <path d="M0,401L21.5,408.2C43,415.3 86,429.7 128.8,430C171.7,430.3 214.3,416.7 257.2,417.3C300,418 343,433 385.8,431.3C428.7,429.7 471.3,411.3 514.2,409.7C557,408 600,423 642.8,428.2C685.7,433.3 728.3,428.7 771.2,434.8C814,441 857,458 878.5,466.5L900,475L900,601L0,601L0,401Z" style="fill:rgb(45,82,129);fill-rule:nonzero;"/>
                </g>
                <g transform="matrix(1.00662,0,0,0.971668,-4.75707,20.7206)">
                    <path d="M0,450L21.5,451.5C43,453 86,456 128.8,458.5C171.7,461 214.3,463 257.2,470.2C300,477.3 343,489.7 385.8,491.8C428.7,494 471.3,486 514.2,481.5C557,477 600,476 642.8,477.3C685.7,478.7 728.3,482.3 771.2,480.2C814,478 857,470 878.5,466L900,462L900,601L0,601L0,450Z" style="fill:rgb(37,64,98);fill-rule:nonzero;"/>
                </g>
                <g transform="matrix(1.00662,0,0,0.971668,-4.75707,20.7206)">
                    <path d="M0,531L21.5,524.5C43,518 86,505 128.8,499.7C171.7,494.3 214.3,496.7 257.2,503.2C300,509.7 343,520.3 385.8,523.3C428.7,526.3 471.3,521.7 514.2,515.5C557,509.3 600,501.7 642.8,498.8C685.7,496 728.3,498 771.2,504.5C814,511 857,522 878.5,527.5L900,533L900,601L0,601L0,531Z" style="fill:rgb(30,47,69);fill-rule:nonzero;"/>
                </g>
                <g transform="matrix(1.00662,0,0,0.971668,-4.75707,20.7206)">
                    <path d="M0,530L21.5,531.2C43,532.3 86,534.7 128.8,537C171.7,539.3 214.3,541.7 257.2,546.5C300,551.3 343,558.7 385.8,561C428.7,563.3 471.3,560.7 514.2,556C557,551.3 600,544.7 642.8,544.5C685.7,544.3 728.3,550.7 771.2,552.2C814,553.7 857,550.3 878.5,548.7L900,547L900,601L0,601L0,530Z" style="fill:rgb(22,30,41);fill-rule:nonzero;"/>
                </g>
            </g>
        </g>
    </g>
</svg>
