<svg width="381" height="304" viewBox="0 0 381 304" fill="none" xmlns="http://www.w3.org/2000/svg">
<ellipse cx="167" cy="197.5" rx="8" ry="7.5" fill="#63CCFA" fill-opacity="0.41"/>
<ellipse cx="140.5" cy="48" rx="11.5" ry="11" fill="#63CCFA" fill-opacity="0.41"/>
<ellipse cx="209.5" cy="7" rx="7.5" ry="7" fill="#63CCFA" fill-opacity="0.41"/>
<ellipse cx="7.99988" cy="148.5" rx="8" ry="7.5" fill="#63CCFA" fill-opacity="0.41"/>
<rect x="177.687" y="200.585" width="140.861" height="4.64378" rx="2.32189" transform="rotate(30.3226 177.687 200.585)" fill="#63CCFA" fill-opacity="0.41"/>
<rect x="145.906" y="62" width="125.209" height="6" rx="3" transform="rotate(79.876 145.906 62)" fill="#63CCFA" fill-opacity="0.41"/>
<rect x="201.489" y="13.7728" width="54.2515" height="3.29006" rx="1.64503" transform="rotate(150.027 201.489 13.7728)" fill="#63CCFA" fill-opacity="0.41"/>
<ellipse rx="10.4516" ry="10.09" transform="matrix(-0.875404 0.483391 -0.440582 -0.897712 114.595 289.89)" fill="#63CCFA" fill-opacity="0.41"/>
<ellipse rx="10.4516" ry="10.09" transform="matrix(-0.875404 0.483391 -0.440582 -0.897712 312.595 280.11)" fill="#63CCFA" fill-opacity="0.41"/>
<ellipse rx="9.829" ry="9.48894" transform="matrix(-0.875404 0.483391 -0.440582 -0.897712 360.785 230.27)" fill="#63CCFA" fill-opacity="0.41"/>
<rect width="77.8609" height="4.60601" rx="2.303" transform="matrix(0.515258 -0.857035 0.828297 0.56029 120.066 275.729)" fill="#63CCFA" fill-opacity="0.41"/>
<rect x="20.7281" y="148" width="142.413" height="6" rx="3" transform="rotate(16.7405 20.7281 148)" fill="#63CCFA" fill-opacity="0.41"/>
<rect x="321" y="267.768" width="42.0985" height="5.27697" rx="2.63848" transform="rotate(-45 321 267.768)" fill="#63CCFA" fill-opacity="0.41"/>
<rect x="374.343" y="230" width="42.0985" height="5.27697" rx="2.63848" transform="rotate(14.748 374.343 230)" fill="#63CCFA" fill-opacity="0.41"/>
<rect x="15.7936" y="162" width="142.413" height="6" rx="3" transform="rotate(53.0314 15.7936 162)" fill="#63CCFA" fill-opacity="0.41"/>
</svg>
