<svg width="301" height="368" viewBox="0 0 301 368" fill="none" xmlns="http://www.w3.org/2000/svg">
<ellipse cx="72.6184" cy="178.474" rx="8" ry="7.5" transform="rotate(-43.0399 72.6184 178.474)" fill="#63CCFA" fill-opacity="0.41"/>
<rect x="82.5349" y="173.435" width="140.861" height="4.64378" rx="2.32189" transform="rotate(-12.7174 82.5349 173.435)" fill="#63CCFA" fill-opacity="0.41"/>
<rect x="-35.2781" y="93.8362" width="125.209" height="6" rx="3" transform="rotate(36.8361 -35.2781 93.8362)" fill="#63CCFA" fill-opacity="0.41"/>
<ellipse rx="10.4516" ry="10.09" transform="matrix(-0.309895 0.950771 -0.934708 -0.355417 97.3735 281.766)" fill="#63CCFA" fill-opacity="0.41"/>
<ellipse rx="10.4516" ry="10.09" transform="matrix(-0.309895 0.950771 -0.934708 -0.355417 235.413 139.482)" fill="#63CCFA" fill-opacity="0.41"/>
<ellipse rx="9.829" ry="9.48894" transform="matrix(-0.309895 0.950771 -0.934708 -0.355417 236.617 70.1646)" fill="#63CCFA" fill-opacity="0.41"/>
<ellipse rx="6.08911" ry="5.87844" transform="matrix(-0.309895 0.950771 -0.934708 -0.355417 293.382 38.8786)" fill="#63CCFA" fill-opacity="0.41"/>
<ellipse rx="6.08911" ry="5.87844" transform="matrix(-0.309895 0.950771 -0.934708 -0.355417 80.3816 26.8786)" fill="#63CCFA" fill-opacity="0.41"/>
<ellipse rx="6.08911" ry="5.87844" transform="matrix(-0.309895 0.950771 -0.934708 -0.355417 46.3816 359.879)" fill="#63CCFA" fill-opacity="0.41"/>
<rect width="77.8609" height="4.60601" rx="2.303" transform="matrix(-0.208342 -0.978056 0.987786 -0.155815 91.7079 267.683)" fill="#63CCFA" fill-opacity="0.41"/>
<rect x="-68.0725" y="242.127" width="142.413" height="6" rx="3" transform="rotate(-26.2994 -68.0725 242.127)" fill="#63CCFA" fill-opacity="0.41"/>
<rect x="233.132" y="124.725" width="42.0985" height="5.27697" rx="2.63848" transform="rotate(-88.0399 233.132 124.725)" fill="#63CCFA" fill-opacity="0.41"/>
<rect x="73" y="162.221" width="125.432" height="5.27697" rx="2.63848" transform="rotate(-88.0399 73 162.221)" fill="#63CCFA" fill-opacity="0.41"/>
<rect x="246.343" y="60.7139" width="42.0985" height="5.27697" rx="2.63848" transform="rotate(-28.292 246.343 60.7139)" fill="#63CCFA" fill-opacity="0.41"/>
<ellipse rx="6.08911" ry="5.87844" transform="matrix(-0.925734 0.378176 -0.333061 -0.942905 161.996 303.774)" fill="#63CCFA" fill-opacity="0.41"/>
<rect x="114.928" y="282" width="42.0985" height="5.27697" rx="2.63848" transform="rotate(21.4344 114.928 282)" fill="#63CCFA" fill-opacity="0.41"/>
<rect x="49" y="351.488" width="68.1915" height="6" rx="3" transform="rotate(-55.9316 49 351.488)" fill="#63CCFA" fill-opacity="0.41"/>
<rect x="-18.556" y="319" width="68.1915" height="6.89982" rx="3.44991" transform="rotate(29.9429 -18.556 319)" fill="#63CCFA" fill-opacity="0.41"/>
</svg>
