<?xml version="1.0" encoding="UTF-8" standalone="no"?>
<!DOCTYPE svg PUBLIC "-//W3C//DTD SVG 1.1//EN" "http://www.w3.org/Graphics/SVG/1.1/DTD/svg11.dtd">
<svg width="100%" height="100%" viewBox="0 0 3483 454" version="1.1" xmlns="http://www.w3.org/2000/svg" xmlns:xlink="http://www.w3.org/1999/xlink" xml:space="preserve" xmlns:serif="http://www.serif.com/" style="fill-rule:evenodd;clip-rule:evenodd;stroke-linejoin:round;stroke-miterlimit:2;">
    <g transform="matrix(1,0,0,1.03923,-12.6417,-2106.27)">
        <rect id="Artboard1" x="12.642" y="2026.75" width="3482.59" height="436.561" style="fill:none;"/>
        <clipPath id="_clip1">
            <rect id="Artboard11" serif:id="Artboard1" x="12.642" y="2026.75" width="3482.59" height="436.561"/>
        </clipPath>
        <g clip-path="url(#_clip1)">
            <g id="wave.svg" transform="matrix(4.16667,0,0,4.00937,1700.66,1267.53)">
                <g transform="matrix(1,0,0,1,-450,-300)">
                    <clipPath id="_clip2">
                        <rect x="0" y="0" width="900" height="600"/>
                    </clipPath>
                    <g clip-path="url(#_clip2)">
                        <rect x="0" y="0" width="900" height="600" style="fill:rgb(22,30,41);"/>
                        <path d="M0,581L18.8,577.3C37.7,573.7 75.3,566.3 112.8,567.5C150.3,568.7 187.7,578.3 225.2,571.8C262.7,565.3 300.3,542.7 337.8,529.5C375.3,516.3 412.7,512.7 450.2,518.5C487.7,524.3 525.3,539.7 562.8,543.8C600.3,548 637.7,541 675.2,541C712.7,541 750.3,548 787.8,552.8C825.3,557.7 862.7,560.3 881.3,561.7L900,563L900,601L0,601L0,581Z" style="fill:rgb(32,45,63);fill-rule:nonzero;"/>
                    </g>
                </g>
            </g>
        </g>
    </g>
</svg>
